<?xml version="1.0" encoding="utf-8"?>
<!-- Generator: Adobe Illustrator 19.0.0, SVG Export Plug-In . SVG Version: 6.00 Build 0)  -->
<svg version="1.1" id="Ebene_1" xmlns="http://www.w3.org/2000/svg" xmlns:xlink="http://www.w3.org/1999/xlink" x="0px" y="0px"
	 viewBox="-135 227 340 340" style="enable-background:new -135 227 340 340;" xml:space="preserve">
<style type="text/css">
	.st0{display:none;fill:#C8C8C8;}
	.st1{fill:#0F0F0F;}
	.st2{display:none;}
	.st3{display:inline;}
	.st4{fill:#FFFFFF;}
	.st5{display:none;fill:none;stroke:#000000;stroke-width:4;stroke-linecap:square;stroke-miterlimit:10;}
	.st6{fill:none;stroke:#000000;stroke-width:4;stroke-linecap:square;stroke-miterlimit:10;}
	.st7{fill:none;stroke:#FFFFFF;stroke-width:4;stroke-linecap:square;stroke-miterlimit:10;}
</style>
<rect x="-135" y="227" class="st0" width="340" height="340"/>
<image style="display:none;overflow:visible;enable-background:new    ;" width="1317" height="1317" xlink:href="7DE3DF66.jpeg"  transform="matrix(0.2581 0 0 0.2581 -135 227)">
</image>
<g>
	<path class="st1" d="M35,541.5c-79.7,0-144.5-64.8-144.5-144.5S-44.7,252.5,35,252.5S179.5,317.3,179.5,397S114.7,541.5,35,541.5z
		 M35,256.5c-77.5,0-140.5,63-140.5,140.5s63,140.5,140.5,140.5s140.5-63,140.5-140.5S112.5,256.5,35,256.5z"/>
	<polygon class="st1" points="31.5,395 28.5,399 0,399 0,395 	"/>
	<polygon class="st1" points="70,395 70,399 38.5,399 41.5,395 	"/>
	<polygon class="st1" points="37,324 37,387.7 33,393 33,324 	"/>
	<polygon class="st1" points="37,401 37,470 33,470 33,406.3 	"/>
	<polygon class="st1" points="113,476 -27,476 89,322 -43,322 -43,318 97,318 -19,472 113,472 	"/>
</g>
<g class="st2">
	
		<image style="display:inline;overflow:visible;opacity:0.7;enable-background:new    ;" width="332" height="332" xlink:href="7DE3DF6A.png"  transform="matrix(1 0 0 1 -131 231)">
	</image>
	<g class="st3">
		<g>
			<path class="st4" d="M35,541.5c-79.7,0-144.5-64.8-144.5-144.5S-44.7,252.5,35,252.5S179.5,317.3,179.5,397S114.7,541.5,35,541.5
				z M35,256.5c-77.5,0-140.5,63-140.5,140.5s63,140.5,140.5,140.5s140.5-63,140.5-140.5S112.5,256.5,35,256.5z"/>
			<polygon class="st4" points="31.5,395 28.5,399 0,399 0,395 			"/>
			<polygon class="st4" points="70,395 70,399 38.5,399 41.5,395 			"/>
			<polygon class="st4" points="37,324 37,387.7 33,393 33,324 			"/>
			<polygon class="st4" points="37,401 37,470 33,470 33,406.3 			"/>
			<polygon class="st4" points="113,476 -27,476 89,322 -43,322 -43,318 97,318 -19,472 113,472 			"/>
		</g>
	</g>
</g>
<polyline class="st5" points="100.5,1013 -33.5,1013 82.5,859 -51.5,859 "/>
<line class="st5" x1="-8.5" y1="936" x2="57.5" y2="936"/>
<line class="st6" x1="24.5" y1="859" x2="24.5" y2="1013"/>
<polyline class="st6" points="184,813 50,813 166,659 -135,659 "/>
<line class="st6" x1="75" y1="736" x2="141" y2="736"/>
<line class="st6" x1="-17" y1="697.5" x2="-17" y2="813"/>
<line class="st6" x1="-110.1" y1="736" x2="-52" y2="736"/>
<line class="st6" x1="-85" y1="659" x2="-85" y2="813"/>
<line class="st6" x1="25" y1="659" x2="25" y2="813"/>
<g class="st2">
	
		<image style="display:inline;overflow:visible;opacity:0.7;enable-background:new    ;" width="366" height="201" xlink:href="7DE3DF6D.png"  transform="matrix(1 0 0 1 1624 288)">
	</image>
	<g class="st3">
		<g>
			<polyline class="st7" points="1966.5,465.5 1832.5,465.5 1948.5,311.5 1647.5,311.5 			"/>
			<line class="st7" x1="1857.5" y1="388.5" x2="1923.5" y2="388.5"/>
			<line class="st7" x1="1765.5" y1="350" x2="1765.5" y2="465.5"/>
			<line class="st7" x1="1672.4" y1="388.5" x2="1730.5" y2="388.5"/>
			<line class="st7" x1="1697.5" y1="311.5" x2="1697.5" y2="465.5"/>
			<line class="st7" x1="1807.5" y1="311.5" x2="1807.5" y2="465.5"/>
		</g>
	</g>
</g>
</svg>
