<?xml version="1.0" encoding="UTF-8" standalone="no"?>
<svg width="158px" height="80px" viewBox="0 0 158 80" version="1.1" xmlns="http://www.w3.org/2000/svg" xmlns:xlink="http://www.w3.org/1999/xlink">
    <!-- Generator: Sketch 3.6.1 (26313) - http://www.bohemiancoding.com/sketch -->
    <title>Fill 1</title>
    <desc>Created with Sketch.</desc>
    <defs></defs>
    <g id="Page-1" stroke="none" stroke-width="1" fill="none" fill-rule="evenodd">
        <g id="teaser-phase-1" transform="translate(-631.000000, -51.000000)" fill="#000000">
            <path d="M662.888165,90.1835196 C663.591001,89.903913 664.072503,89.5504351 664.300366,88.7661559 L664.687012,87.582143 C665.034134,86.3715501 664.417907,85.7374301 663.262094,86.1340571 L661.691454,86.6397653 L669.619234,62.1579672 L672.220929,60.6356648 L674.123912,62.7289169 L673.016903,66.1960382 L671.633571,66.9527019 C670.936922,67.2972048 670.586363,67.7380166 670.394931,68.4294388 L670.145072,69.1926611 C669.897275,70.1126012 670.713527,70.7705396 671.556929,70.5095735 L677.479651,68.4622321 C678.338864,68.149487 678.600408,67.7356003 678.848892,66.9709972 L680.680389,61.2345752 C680.929904,60.4703172 680.797929,59.8827983 680.198886,59.2794004 L675.537144,54.5340283 C674.930197,53.8643533 674.256918,53.8060157 673.50253,54.2247351 L663.5312,59.948385 C662.900881,60.2863292 662.549979,60.727141 662.358547,61.4175276 L653.378748,89.4972753 L649.075125,90.9781545 C648.095623,91.3257641 647.953338,91.5497946 647.69798,92.4027672 L647.331268,93.6074918 C646.983115,94.831202 647.798679,95.320686 648.749999,94.9906812 L651.93424,93.9419841 L642.524147,122.923722 L639.402801,124.460868 L637.538998,122.410765 L638.62298,119.014753 L639.978129,118.273968 C640.660344,117.936369 641.003685,117.504878 641.191337,116.827263 L641.436041,116.07992 C641.678682,115.178965 640.879271,114.534489 640.053053,114.790278 L634.59568,115.414732 C633.75434,115.720919 633.497951,116.126521 633.254622,116.8749 L631.117245,123.874384 C630.872542,124.623108 631.002111,125.198546 631.588781,125.789171 L636.842005,130.437544 C637.43658,131.093066 638.095767,131.150368 638.835033,130.740279 L648.601184,125.13434 C649.218785,124.803299 649.562127,124.355584 649.749779,123.679695 L660.311903,91.0779154 L662.888165,90.1835196 Z M782.7469,69.3176211 L779.990204,66.4873814 L773.848211,86.7022453 L776.077695,89.0578443 L776.830708,88.6294594 L782.7469,69.3176211 Z M695.69014,85.3138779 L701.423491,80.0351822 L698.153673,76.1800636 L695.69014,85.3138779 Z M731.448835,80.9568483 L737.182187,75.6781526 L733.875251,72.1740955 L731.448835,80.9568483 Z M788.887175,72.4084818 L784.108236,87.8096254 C783.924708,88.505535 783.576212,88.9522151 782.880937,89.3060382 L775.036673,93.7645547 C774.28366,94.19363 773.599039,94.0745383 772.981781,93.4090056 L769.079239,89.1817687 L762.097624,95.2219608 C761.368668,95.8495221 760.684048,95.7311208 760.000802,95.0731824 L756.128505,90.8576821 L749.301891,96.8088143 C748.572592,97.4360305 747.887972,97.3179744 747.204726,96.660036 L742.703829,91.7676116 L729.177765,99.3525436 C728.424752,99.7816188 727.739788,99.6625272 727.122873,98.9966493 L723.097636,94.6800073 L713.562786,101.255939 C712.81802,101.750601 712.140961,101.698477 711.52439,101.032599 L706.99806,96.0949546 L693.419413,103.709573 C692.6664,104.138648 691.981092,104.019557 691.364178,103.353679 L685.435613,96.9979802 C684.892935,96.39044 684.754773,95.8011951 684.997071,95.0303785 L690.931478,76.5863561 C691.181681,75.8821618 691.595821,75.4278874 692.299001,75.1399962 L698.00039,73.1792984 C698.769556,72.8838129 699.396094,73.0764308 700.005447,73.6760315 L705.405081,79.6844658 C706.095887,80.4083361 706.051896,81.154644 705.323284,81.7822054 L693.676146,91.9581582 L692.222703,96.5809867 L694.452187,98.9365857 L705.913391,92.4887203 L715.370912,61.9249617 C715.605305,61.0882132 715.702224,60.8493394 716.649076,60.5120856 L721.601575,58.8175318 C722.513028,58.5379252 723.254356,59.2714609 722.867711,60.4147411 L719.752894,70.6196902 L722.201649,69.7815609 C723.35918,69.3714713 723.839995,70.0884377 723.549925,71.0125201 L723.315188,71.7553761 C723.004497,72.7591981 722.889019,73.1471954 722.008155,73.4923887 L718.592958,74.6539641 L712.430688,94.5225992 L713.664516,95.8543548 L721.122479,90.9715958 C721.180561,90.9353505 721.237957,90.9104966 721.295696,90.8811552 L726.519363,72.9279977 C726.769565,72.2241486 727.183706,71.769529 727.886885,71.4816378 L733.865628,69.3897665 C734.634794,69.0946262 735.261332,69.2872441 735.870685,69.8868448 L741.163776,75.3277814 C741.854583,76.0516517 741.810591,76.7979596 741.081979,77.425521 L729.434842,87.6014738 L727.981398,92.2239571 L730.210539,94.579556 L741.509523,88.2235121 L751.359533,56.4726338 C751.593582,55.6355401 752.003942,55.2534111 752.938421,54.9361785 L757.626971,53.3248162 C758.797561,52.9057516 759.37942,53.6251344 759.055325,54.642419 L748.115147,90.1752349 L749.637328,91.6733738 L754.044399,87.7516329 C754.060552,87.6028546 764.388971,54.2589093 764.388971,54.2589093 C764.623708,53.4218155 764.825795,53.1139031 765.649951,52.8339514 L770.642662,51.0997003 C771.692619,50.7362118 772.421575,51.3893175 771.974784,52.6889702 L760.941812,88.6125449 L762.463992,90.1106838 L766.954579,86.1143811 C766.962484,85.9231441 766.997196,85.7232771 767.064902,85.5082217 L772.751856,66.6772377 C772.994497,65.9071115 773.416886,65.518769 774.119722,65.2308778 L779.761997,63.2843329 C780.596808,62.980908 781.215784,63.1075939 781.758462,63.7151341 L788.382645,70.4495099 C788.991311,71.0484202 789.129129,71.6383556 788.887175,72.4084818 L788.887175,72.4084818 Z M676.806716,76.3226284 L672.081049,77.9477984 C671.37787,78.2349992 670.955481,78.6233417 670.713183,79.3941583 L663.731568,100.989795 C663.48927,101.760267 663.627431,102.349166 664.170453,102.957052 L667.337166,106.410365 C668.110457,107.259541 668.961421,107.08798 669.295826,105.969554 L677.815431,78.8701549 L680.423313,81.5833741 L679.127964,85.8503083 C678.793559,86.9687345 679.270593,87.5838689 680.394443,87.4471724 L684.822136,86.9076353 C685.615017,86.8109812 686.103737,86.4143541 686.33813,85.5779508 L686.588332,84.8737565 C686.83063,84.1029399 686.692469,83.5136949 686.083459,82.9140942 L679.872042,76.4641577 C679.106999,75.6819497 678.406226,75.780675 676.806716,76.3226284 L676.806716,76.3226284 Z M776.018581,100.155118 L775.905852,100.926625 C775.707202,102.026756 775.164868,102.151026 774.201863,102.305327 L656.671593,118.784509 C655.681436,118.918099 655.25183,118.020942 655.531933,117.15209 L656.563676,114.040863 C656.81594,113.212744 657.314283,112.828199 658.111632,112.74984 L774.667212,98.5548019 C775.857393,98.4184506 776.158117,99.1195381 776.018581,100.155118 L776.018581,100.155118 Z" id="Fill-1"></path>
        </g>
    </g>
</svg>
